<svg xmlns="http://www.w3.org/2000/svg" version="1.1" xmlns:xlink="http://www.w3.org/1999/xlink" width="512" height="512" x="0" y="0" viewBox="0 0 100 100" style="enable-background:new 0 0 512 512" xml:space="preserve" class=""><g><path fill="#b5332a" d="M95.861 24.752c0-7.801-8.824-12.254-15.003-7.579L75.014 21.6v.013L50 40.548 24.986 21.6l-5.831-4.415c-6.192-4.675-15.016-.221-15.016 7.579V78.418c0 3.49 2.799 6.316 6.257 6.316h14.59V48.961L50 67.896l25.014-18.935v-.013l.029-.022-.029.035v35.773h14.59c3.457 0 6.257-2.826 6.257-6.316v-45.24l-.038.015.038-.028z" opacity="1" data-original="#b5332a" class=""></path><path fill="#4e85eb" d="M10.396 84.734h14.59V48.961L4.139 33.178v45.241c0 3.489 2.799 6.315 6.257 6.315z" opacity="1" data-original="#4e85eb"></path><path fill="#58a45c" d="M75.014 84.734h14.59c3.457 0 6.257-2.826 6.257-6.316v-45.24L75.014 48.961z" opacity="1" data-original="#58a45c"></path><path fill="#f2bc42" d="M75.014 21.6v27.348l20.847-15.783v-8.413c0-7.801-8.824-12.254-15.003-7.579z" opacity="1" data-original="#f2bc42"></path><path fill="#d85040" d="M24.986 48.961V21.6L50 40.548l25.014-18.935v27.348L50 67.896z" opacity="1" data-original="#d85040"></path><path fill="#b5332a" d="M4.139 24.765v8.413l20.847 15.783V21.6l-5.831-4.415c-6.192-4.674-15.016-.221-15.016 7.58z" opacity="1" data-original="#b5332a" class=""></path></g></svg>
